<svg xmlns="http://www.w3.org/2000/svg" width="256" height="256" shape-rendering="geometricPrecision"><g transform="scale(1,1)" stroke-width=".05%"><g fill="#004a66"><path d=" M 194.77 37.76 C 193.98 35.63 195.52 33.66 196.65 31.98 C 197.52 31.99 199.27 32.01 200.14 32.03 C 200.47 32.77 200.77 33.53 201.04 34.31 C 200.06 34.98 199.08 35.63 198.09 36.27 C 201.04 40.63 206.21 42.53 209.72 46.32 C 215.83 52.64 220.50 61.10 219.97 70.13 C 219.77 78.11 215.32 85.29 210.07 91.02 C 207.46 93.60 204.52 96.76 200.51 96.49 C 196.67 97.57 192.91 99.67 188.80 99.02 C 183.34 98.21 178.41 95.20 174.43 91.48 C 173.01 88.95 172.87 85.89 171.88 83.17 C 169.05 81.16 165.64 79.91 162.37 81.83 C 159.41 78.81 157.15 74.91 153.18 73.07 C 151.33 73.67 149.46 74.23 147.57 74.73 C 146.19 72.69 145.76 69.76 148.11 68.22 C 153.09 65.09 159.51 64.83 165.17 65.81 C 170.63 66.48 174.56 71.08 180.05 71.68 C 188.49 72.84 198.23 72.62 205.09 66.88 C 208.20 64.60 207.20 60.43 207.18 57.12 C 207.21 53.51 205.69 50.11 203.31 47.46 C 202.61 49.29 202.20 51.32 200.79 52.79 C 195.80 58.55 191.38 64.80 186.17 70.36 C 183.82 70.24 181.47 70.04 179.22 69.36 C 180.10 64.54 184.87 62.30 187.27 58.41 C 190.49 53.60 194.43 49.34 198.09 44.87 C 199.40 45.22 200.71 45.57 202.04 45.89 C 199.87 42.94 195.80 41.50 194.77 37.76 M 200.86 74.12 C 195.48 76.74 189.34 77.22 183.45 76.71 C 184.52 78.46 185.27 80.97 187.18 81.89 C 196.08 81.62 205.44 76.78 208.97 68.24 C 206.15 70.05 204.02 72.83 200.86 74.12 M 205.34 78.27 C 201.10 82.38 195.24 83.83 189.68 85.15 C 189.76 86.35 189.94 87.53 190.20 88.71 C 192.99 90.41 196.64 90.05 199.40 88.50 C 205.33 83.22 212.10 77.55 213.26 69.18 C 210.44 72.05 208.50 75.71 205.34 78.27 M 203.06 89.85 C 199.82 91.38 196.25 92.39 193.57 94.89 C 203.94 96.03 211.22 86.53 214.30 77.78 C 210.72 81.93 208.01 87.09 203.06 89.85 Z"/><path d=" M 202.20 37.05 C 205.58 32.44 212.32 36.53 212.65 41.34 C 212.17 43.59 209.59 43.18 207.87 42.95 C 205.02 42.18 203.19 39.70 202.20 37.05 Z"/><path d=" M 165.31 84.04 C 165.96 84.00 167.27 83.93 167.92 83.89 C 169.08 85.48 170.12 87.15 170.83 88.98 C 167.72 95.80 161.36 100.21 157.29 106.36 C 154.94 109.96 151.55 112.74 149.31 116.42 C 147.82 118.82 145.21 120.19 143.61 122.51 C 115.79 157.18 87.25 191.32 57.11 224.02 C 55.15 225.71 52.93 227.09 50.75 228.49 C 63.58 206.34 81.29 187.65 96.22 166.98 C 100.83 162.93 103.68 157.37 108.16 153.20 C 110.19 151.21 111.46 148.62 113.19 146.40 C 118.38 139.58 124.72 133.69 129.31 126.43 C 141.85 112.76 152.68 97.62 165.31 84.04 Z"/></g><g fill="#74131b"><path d=" M 63.11 42.31 C 67.08 40.60 71.58 39.51 75.54 41.90 C 73.95 43.46 72.54 45.27 70.63 46.45 C 67.99 46.43 65.40 45.74 62.83 45.18 C 62.90 44.46 63.04 43.03 63.11 42.31 Z"/><path d=" M 57.55 41.96 C 57.98 41.94 58.82 41.91 59.25 41.89 C 60.19 43.55 60.87 45.46 62.34 46.75 C 64.43 47.88 66.87 48.15 69.12 48.87 C 69.60 51.21 70.18 53.52 70.89 55.80 C 69.93 60.15 68.68 64.52 65.93 68.11 C 65.32 67.31 64.72 66.52 64.11 65.73 C 65.54 61.46 67.51 56.42 64.73 52.26 C 63.32 49.61 60.17 49.10 57.48 48.77 C 56.37 48.03 55.27 47.27 54.18 46.51 C 55.33 45.02 56.46 43.50 57.55 41.96 Z"/><path d=" M 71.92 47.92 C 73.87 45.93 75.56 43.01 78.67 42.93 C 78.86 44.66 78.26 46.34 78.15 48.06 C 78.37 50.04 79.21 51.89 79.86 53.77 C 78.77 58.33 76.89 62.62 74.76 66.79 C 72.88 70.41 72.85 74.57 72.33 78.52 C 69.99 73.14 69.87 67.07 71.48 61.48 C 72.79 57.06 73.20 52.39 71.92 47.92 Z"/><path d=" M 44.44 58.78 C 45.26 53.79 47.41 48.90 51.49 45.75 C 52.75 47.13 54.02 48.51 55.32 49.87 C 50.68 51.60 48.87 56.76 44.44 58.78 Z"/><path d=" M 58.16 50.93 C 61.24 50.40 63.39 53.04 64.38 55.62 C 66.40 58.93 62.10 61.53 60.61 64.15 C 62.45 64.75 63.65 66.02 63.20 68.06 C 63.11 74.30 58.44 78.98 54.70 83.46 C 56.99 82.78 59.53 81.97 60.74 79.70 C 62.91 75.84 64.32 71.46 67.67 68.37 C 67.99 71.48 68.31 74.59 69.00 77.64 C 66.37 80.16 63.44 82.48 61.77 85.80 C 58.26 92.76 49.40 92.57 43.84 97.07 C 43.93 94.28 42.77 90.42 45.55 88.58 C 48.48 86.92 51.75 85.98 54.72 84.42 C 48.96 84.42 42.80 81.58 41.16 75.64 C 47.02 75.20 53.94 72.69 54.95 66.05 C 52.19 67.14 49.27 67.90 46.32 67.16 C 45.75 65.72 45.18 64.29 44.64 62.84 C 46.70 62.73 48.77 62.68 50.84 62.68 C 50.32 60.64 49.48 58.53 50.02 56.41 C 51.17 55.34 52.50 54.50 53.78 53.62 C 54.99 55.30 56.14 57.01 57.32 58.72 C 57.89 56.15 57.36 53.44 58.16 50.93 M 52.44 61.92 C 53.52 62.94 54.60 63.96 55.69 64.98 C 55.96 63.21 56.23 61.44 56.49 59.67 C 55.14 60.41 53.79 61.17 52.44 61.92 Z"/><path d=" M 75.02 71.02 C 76.58 65.89 78.85 60.99 80.99 56.09 C 84.53 61.73 88.20 68.08 87.29 75.01 C 86.00 80.59 82.82 85.59 78.62 89.46 C 75.46 83.97 73.09 77.34 75.02 71.02 Z"/><path d=" M 30.72 77.61 C 32.48 71.08 37.82 66.44 43.39 63.05 C 43.91 66.52 46.34 69.03 48.64 71.47 C 46.82 72.61 44.72 73.86 42.49 73.16 C 41.33 71.77 40.41 70.20 39.39 68.70 C 37.04 75.21 41.17 81.87 46.62 85.27 C 44.99 87.49 43.33 89.70 41.76 91.97 C 38.81 90.78 35.65 90.37 32.48 90.57 C 30.35 86.65 29.22 81.96 30.72 77.61 Z"/><path d=" M 104.67 69.67 C 110.67 62.14 122.69 60.71 130.36 66.54 C 122.66 75.73 125.97 88.73 120.84 98.95 C 119.44 101.90 116.52 103.61 113.69 104.97 C 113.42 99.21 117.02 94.51 118.52 89.19 C 116.87 90.94 115.40 92.85 113.84 94.68 C 111.92 89.62 114.47 84.57 116.27 79.90 C 114.78 81.82 113.33 83.75 111.88 85.70 C 110.80 80.21 112.09 74.78 113.16 69.42 C 108.22 74.22 109.43 81.78 110.41 87.88 C 109.05 86.68 107.69 85.47 106.29 84.31 C 107.72 87.52 110.45 90.34 110.49 94.03 C 110.63 96.54 110.28 99.04 110.03 101.53 C 104.43 95.23 100.79 86.63 102.13 78.11 C 102.63 75.23 102.65 71.99 104.67 69.67 Z"/><path d=" M 63.34 86.37 C 64.77 82.86 67.88 80.57 71.05 78.72 C 71.53 78.99 72.49 79.53 72.96 79.80 C 74.01 83.59 75.83 87.06 77.79 90.44 C 77.06 91.80 76.35 93.16 75.64 94.53 C 82.51 96.31 89.63 95.88 96.66 96.19 C 92.65 104.73 78.78 103.34 74.82 95.47 C 67.88 98.29 60.19 97.06 53.12 95.41 C 56.61 92.50 61.50 90.87 63.34 86.37 Z"/><path d=" M 85.37 85.74 C 85.90 84.12 86.47 82.52 87.06 80.93 C 88.33 82.17 89.59 83.44 90.81 84.75 C 89.02 85.19 87.20 85.51 85.37 85.74 Z"/><path d=" M 84.62 87.44 C 86.95 86.62 89.50 86.95 91.93 86.81 C 93.32 88.68 94.63 90.61 95.64 92.71 C 90.20 95.37 84.07 94.00 78.51 92.56 C 80.48 90.79 82.29 88.76 84.62 87.44 Z"/><path d=" M 98.78 94.06 C 100.38 94.93 101.88 95.96 103.26 97.14 C 103.12 97.99 102.84 99.68 102.70 100.53 C 106.54 105.39 110.73 110.09 116.11 113.28 C 118.85 110.60 121.39 106.90 125.75 107.28 C 124.89 110.75 121.23 114.08 122.91 117.79 C 124.57 120.20 127.04 121.89 129.01 124.03 C 127.56 125.88 126.07 127.70 124.55 129.49 C 123.16 128.25 121.81 126.96 120.46 125.67 C 117.45 127.05 114.86 129.74 111.43 129.95 C 110.46 126.11 113.72 123.48 116.20 121.19 C 111.16 115.57 104.59 111.72 98.67 107.14 C 94.72 106.52 90.43 107.55 86.84 105.25 C 89.64 103.50 92.93 103.12 96.01 102.15 C 97.38 101.09 98.42 99.68 99.59 98.42 C 99.39 97.33 98.98 95.15 98.78 94.06 Z"/><path d=" M 57.73 131.78 C 62.17 120.77 72.26 112.32 83.96 110.19 C 91.41 109.06 100.07 110.00 105.55 115.71 C 101.38 115.97 97.47 117.46 93.45 118.42 C 90.36 119.38 88.36 116.07 85.95 114.81 C 86.90 116.34 87.83 117.88 88.75 119.43 C 84.81 119.66 80.39 117.57 76.84 120.01 C 75.05 121.24 74.17 123.36 72.82 125.00 C 75.84 122.73 78.98 120.21 83.00 120.38 C 82.55 122.48 82.17 124.61 82.25 126.78 C 83.32 125.32 84.31 123.82 85.26 122.30 C 88.27 121.48 91.32 120.85 94.41 120.44 C 93.47 122.12 92.52 123.79 91.62 125.50 C 95.61 122.01 99.84 117.02 105.80 118.69 C 100.89 124.36 96.33 130.72 89.62 134.41 C 83.66 136.33 77.72 133.25 71.95 132.00 C 67.32 130.60 62.41 130.72 57.73 131.78 Z"/><path d=" M 134.44 138.07 C 135.41 136.52 136.70 135.21 137.96 133.90 C 142.42 135.97 145.60 139.76 149.07 143.09 C 152.10 140.19 155.37 136.34 160.09 137.73 C 158.02 141.42 155.10 145.38 156.21 149.87 C 157.46 153.80 160.64 156.66 163.32 159.64 C 168.89 165.10 173.56 171.37 179.06 176.89 C 181.16 175.08 183.31 173.33 185.62 171.78 C 186.30 172.23 187.67 173.12 188.36 173.57 C 187.20 176.44 184.13 179.28 185.37 182.56 C 188.15 186.43 192.72 188.50 195.75 192.17 C 200.56 198.11 208.34 201.08 212.16 207.90 C 213.95 210.77 215.55 214.90 212.50 217.55 C 211.04 215.38 209.99 212.67 207.55 211.40 C 205.52 210.49 203.29 210.22 201.12 209.83 C 200.11 206.46 199.75 202.55 197.12 199.96 C 190.22 193.30 181.96 188.31 173.97 183.10 C 168.09 177.94 163.10 171.87 157.88 166.06 C 155.09 166.96 152.51 168.37 150.46 170.49 C 149.62 169.57 148.79 168.66 147.95 167.74 C 149.19 165.00 150.81 162.45 152.67 160.09 C 149.46 154.87 145.61 150.05 141.22 145.77 C 138.87 143.29 136.12 141.09 134.44 138.07 Z"/></g></g></svg>